Coordinates
version=1
nRows=13
nColumns=36
inDegrees=yes

Units are S.I. units (second, meters, Newtons, ...)
If the header above contains a line with 'inDegrees', this indicates whether rotational values are in degrees (yes) or radians (no).

endheader
time	pelvis_tilt	pelvis_list	pelvis_rotation	pelvis_tx	pelvis_ty	pelvis_tz	hip_flexion_r	hip_adduction_r	hip_rotation_r	knee_angle_r	knee_angle_r_beta	ankle_angle_r	subtalar_angle_r	mtp_angle_r	hip_flexion_l	hip_adduction_l	hip_rotation_l	knee_angle_l	knee_angle_l_beta	ankle_angle_l	subtalar_angle_l	mtp_angle_l	lumbar_extension	lumbar_bending	lumbar_rotation	arm_flex_r	arm_add_r	arm_rot_r	elbow_flex_r	pro_sup_r	arm_flex_l	arm_add_l	arm_rot_l	elbow_flex_l	pro_sup_l
      0.95000000	     -3.67804912	     -0.82361790	      3.29108141	      0.98536728	      1.18587605	     -0.28448505	     18.79215249	     -5.27426035	     -5.18273214	     21.49295298	      0.37512280	    -11.25543425	      1.11320410	     -7.49999671	     19.16942114	     -8.88935457	     -9.18531775	     24.16762354	      0.42180460	    -13.90108141	     -4.85404921	     -7.49999671	     -8.56226381	      0.12714869	     -8.02005242	     60.49766327	    -66.57368903	     22.34338714	     73.65559020	     86.06737659	    102.46310742	   -106.21028115	     69.46080070	     93.75871537	     78.61045326
      0.96666670	     -3.73301482	     -0.91110607	      3.18378995	      1.00347587	      1.16475438	     -0.28134182	     20.15019606	     -5.27119428	     -5.30710458	     20.02854574	      0.34956407	    -11.74487516	      2.31645119	     -7.49999722	     20.49658746	     -9.48627719	     -8.61051258	     22.78290025	      0.39763662	    -16.13872173	     -5.56610043	     -7.49999722	     -9.49417472	     -0.49698433	    -10.91519255	     55.55171804	    -63.97811595	     20.04957264	     71.32052234	     87.00505352	    101.73922506	   -116.14053840	     69.45932518	     92.63341123	     79.63990264
      0.98333330	     -3.45177940	     -0.77564303	      3.04818119	      1.02468725	      1.13364576	     -0.28876297	     21.79334707	     -5.88976785	     -5.83182102	     19.50557665	      0.34043654	    -12.34718172	      3.18787203	     -7.49999737	     22.01119847	     -9.59925979	     -8.23833468	     22.18756186	      0.38724601	    -16.99803063	     -6.18037692	     -7.49999737	    -10.43400599	     -1.07152516	    -12.94227429	     50.37118440	    -63.25395105	     19.51476181	     69.51793154	     86.69473338	    102.89728071	   -125.77544470	     71.21859652	     88.73309478	     79.62858157
      1.00000000	     -2.88813666	     -0.71634009	      2.84110577	      1.04067741	      1.10374902	     -0.29216542	     22.21412062	     -6.34167613	     -6.17458272	     18.11284969	      0.31612886	    -12.60268362	      4.07202162	     -7.49999759	     22.11002629	     -9.67440968	     -7.59721384	     20.60354131	      0.35959963	    -16.76873091	     -6.40063186	     -7.49999759	    -11.27876191	     -1.80990460	    -15.99913636	     43.43481546	    -61.87356336	     16.93414964	     65.84607022	     86.49983528	    101.97616365	   -136.32695496	     71.69534172	     84.50913483	     79.64239733
      1.01666670	     -2.50802487	     -0.58292056	      2.99021938	      1.05003348	      1.06980385	     -0.29305353	     23.09496380	     -6.98072749	     -6.54725482	     17.51216170	      0.30564488	    -13.51242573	      4.77400063	     -7.49999767	     22.78240483	     -9.76185709	     -6.97399708	     20.05307982	      0.34999227	    -17.70294736	     -6.70813927	     -7.49999767	    -12.24273393	     -2.23876016	    -18.14699050	     40.44211534	    -59.81152693	     16.15514779	     64.31226427	     86.23077558	    102.28944009	   -143.26909171	     73.35731246	     79.14472029	     79.85530857
      1.03333330	     -1.98878439	     -0.47096027	      3.07988439	      1.06709821	      1.03282666	     -0.29052664	     24.25759487	     -7.35191989	     -6.59690943	     18.30672354	      0.31951260	    -14.64544634	      4.71575561	     -7.49999789	     23.95916972	     -9.83169292	     -6.05487109	     21.43118852	      0.37404480	    -17.37643744	     -6.55616325	     -7.49999789	    -13.53260903	     -3.01109927	    -21.56060537	     33.61158268	    -58.31982065	     15.68098909	     61.00924279	     85.07772668	    102.90138898	   -152.00933866	     74.10469020	     72.74433749	     79.33809518
      1.05000000	     -1.23094820	     -0.67658241	      3.29041352	      1.08184452	      0.99349170	     -0.28956605	     25.22331494	     -7.47020446	     -6.78953198	     19.48588598	      0.34009287	    -15.31285308	      5.02612791	     -7.49999805	     24.90183324	    -10.12021690	     -5.14027524	     22.74522729	      0.39697911	    -17.82039045	     -6.55874434	     -7.49999805	    -14.79260514	     -3.34284972	    -24.10087361	     25.49416987	    -57.92335106	     15.67934759	     59.07880662	     84.06600430	    103.75848690	   -158.53267734	     76.25190143	     66.89184574	     79.11469387
      1.06666670	     -0.78047865	     -1.16160497	      3.43644649	      1.09740245	      0.94920541	     -0.28854402	     27.05694554	     -7.14085928	     -6.11066311	     23.00663358	      0.40154151	    -13.25470810	      4.17644773	     -7.49999996	     27.23380323	    -11.13497114	     -4.18924487	     26.85731948	      0.46874865	    -16.13243689	     -7.03975189	     -7.49999996	    -17.54391077	     -1.02718851	     -8.02510760	    -34.48878840	    -53.26748665	    -42.16922669	     74.89918450	     83.51069311	    116.91879170	   -143.92869405	     85.51030798	     60.89267712	     84.76242422
      1.08333330	     -0.54794816	     -1.50536855	      3.06849451	      1.12286287	      0.90780315	     -0.30035614	     29.29357196	     -7.08025189	     -5.22360360	     29.58300148	      0.51632078	     -7.28585640	      2.18077978	     -7.49999994	     28.53908358	    -11.80881471	     -3.69110939	     32.57715632	      0.56857864	     -8.76687393	     -7.12427246	     -7.49999994	    -17.49830902	     -0.56690752	     -5.76195267	    -35.89486939	    -48.11159709	    -40.26885650	     66.78301607	     81.32028164	    122.50688794	   -147.92844177	     88.68304767	     53.87847095	     82.56747642
      1.10000000	     -0.58083083	     -1.48494220	      2.90428782	      1.12636395	      0.86951174	     -0.30425178	     33.96036023	     -7.37773461	     -3.14170551	     40.18858594	      0.70142315	     -0.03404696	     -1.42039599	     -7.49999991	     32.25789238	    -11.94327951	     -2.87040868	     41.46644742	      0.72372604	      0.60149737	     -7.23925375	     -7.49999991	    -18.37227578	      0.49496835	      0.95549416	    -43.47405702	    -37.33785557	    -47.93946286	     61.92697905	     87.41296493	    132.89865794	   -146.05554182	     96.82458178	     46.35211614	     89.86703198
      1.11666670	     -0.60922477	     -1.19916532	      3.17609469	      1.14115945	      0.82388969	     -0.30058850	     39.96307475	     -7.57051351	     -1.02223616	     53.05989833	      0.92606993	      7.19322408	     -5.90905539	     -7.49999990	     37.42913108	    -11.98123964	     -1.37224763	     52.55958352	      0.91733779	     10.66413924	     -7.45675227	     -7.49999990	    -18.65492086	      0.15688372	      1.74183321	    -40.36612125	    -31.49164027	    -45.04755153	     53.48103312	     84.38144002	    136.74688304	   -150.64694722	    100.55673458	     43.20811317	     86.79390654
      1.13333330	     -0.57544060	     -1.19052333	      3.59610378	      1.14766273	      0.79924387	     -0.29524069	     44.82411937	     -7.25489026	      0.25723116	     63.45843092	      1.10755856	     12.57736338	     -9.09767784	     -7.49999990	     42.57431058	    -12.63175837	     -0.36858488	     62.89405866	      1.09770840	     18.16718054	     -6.92410215	     -7.49999990	    -19.46307887	     -0.15984652	      0.23121717	    -32.56815248	    -27.38901287	    -39.71718718	     42.84873867	     91.50161455	    140.55879638	   -156.09673030	    103.98435717	     39.93730278	     96.06626747
      1.15000000	     -0.40540640	     -1.52726855	      3.77111025	      1.14807666	      0.77941458	     -0.29349170	     48.62454585	     -6.55750740	      0.79040969	     71.49528979	      1.24782821	     16.89495094	    -10.68685164	     -7.49999989	     47.03488733	    -13.83890098	      0.40741425	     71.53640055	      1.24854572	     23.78727184	     -5.34975793	     -7.49999989	    -21.29518652	      0.36749780	      0.09867535	    -24.46283936	    -22.51675921	    -37.60397089	     34.58981923	     90.69429110	    148.41830146	   -160.03333804	    110.29673959	     32.96129190	     96.66009335
